<svg version="1.1" xmlns="http://www.w3.org/2000/svg" xmlns:xlink="http://www.w3.org/1999/xlink">
<defs>
<symbol id='Desserts' viewBox='0 0 75 80'>
<path d="M71.0753 44.0475C73.1181 40.0443 68.5836 36.0885 65.1335 35.1875C67.1269 23.1739 56.3806 20.0704 50.7583 20.0204C56.8917 6.92556 42.836 2.55062 35.0414 2C36.2718 3.16204 36.4984 6.15304 27.562 8.82068C18.6257 11.4883 19.7589 17.3987 21.4426 20.0204C9.08706 17.7639 8.71795 27.7812 10.0778 33.072M71.0753 44.0475C68.0906 49.8964 59.5774 50.0901 56.7024 46.486C55.6701 45.823 54.8443 45.4531 54.0827 45.3496M71.0753 44.0475L60.6849 73.0867C60.4259 74.0214 59.2667 75.9059 56.7024 75.9665C55.903 75.9854 52.9246 75.995 48.8345 75.9985M2.88988 46.1071C7.3866 50.1267 10.2798 49.7545 15.8088 46.486C17.0909 45.7083 18.067 45.3329 19.0142 45.3496M2.88988 46.1071C0.42914 42.4947 -1.57831 34.8302 10.0778 33.072M2.88988 46.1071L12.3119 73.0867C13.9632 75.815 15.485 76.0423 16.9744 75.9665C19.0293 75.9708 21.4494 75.9753 24.0652 75.9797M10.0778 33.072C14.6432 35.8255 24.9977 39.6805 29.8933 33.072C34.7888 26.4635 44.0425 27.5902 48.0574 28.9796M19.0142 45.3496C19.9292 45.3658 20.8172 45.7477 21.9282 46.486C26.3472 50.4233 28.7449 50.2373 32.9044 46.486C34.3096 45.8091 35.3657 45.5258 36.4013 45.5754M19.0142 45.3496L24.0652 75.9797M24.0652 75.9797C27.9322 75.9861 32.2267 75.992 36.4013 75.9958M36.4013 45.5754C37.3402 45.6203 38.2623 45.9389 39.4124 46.486C43.7125 50.3402 46.1992 50.3117 50.7583 46.486C52.0181 45.6058 52.9836 45.2004 54.0827 45.3496M36.4013 45.5754V75.9958M36.4013 75.9958C40.9172 75.9999 45.2926 76.0015 48.8345 75.9985M54.0827 45.3496L48.8345 75.9985" stroke="#656565" stroke-width="2"></path>
</symbol>


<symbol id='Bread' viewBox='0 -10 90 80'>
<path d="M6.18574 27.8697C14.3077 32.7637 26.881 36.4602 31.8271 37.2411L39.5065 38.0221M6.18574 27.8697C-3.96667 21.7522 1.36986 7.69504 17.1191 2.87915C32.8684 -1.93674 60.3319 3.66006 69.443 6.7839M6.18574 27.8697V53.9015C6.05558 55.3332 6.49812 58.3009 9.30956 58.7174L35.4715 68.219C37.1636 68.5661 39.8969 69 42.5001 69M69.443 6.7839C76.0811 9.05984 97.9479 20.1903 81.9383 30.4729C81.9383 37.675 81.9383 52.9904 81.9383 56.6348C81.9383 60.2793 80.1161 61.1904 79.205 61.1904L42.5001 69M69.443 6.7839C50.3097 4.31086 12.0429 20.5808 39.5065 38.0221M42.5001 69C41.1985 69 39.6106 68.5835 39.5065 65.8762C39.4023 63.1689 39.4631 46.1787 39.5065 38.0221M45.1033 17.9776C41.025 18.1945 33.7274 21.3097 40.2874 30.4729M49.1382 42.838V58.7174" stroke="#656565" stroke-width="2" stroke-linecap="round"></path>
</symbol>

<symbol id='Detergents' viewBox='0 0 78 100'>
<path d="M78.6435 29.5418L54.9918 41.9165M78.6435 29.5418L56.4888 26.6477M78.6435 29.5418L79.1425 80.8371L54.9918 99M54.9918 41.9165C54.9918 41.9165 22.6946 38.3279 2 36.0285M54.9918 41.9165V99M2 36.0285L29.9871 24.053M2 36.0285L3.29735 90.2179L54.9918 99M41.0203 9.58248C41.0203 9.58248 39.0244 1.00001 43.615 1L64.5723 1.49897M41.0203 9.58248C41.0203 9.58248 51.8981 5.59063 55.4908 6.08961C59.0835 6.58859 63.1086 3.32857 64.5723 1.49897M41.0203 9.58248C40.4216 10.5804 37.0285 12.277 32.7372 12.277C29.8013 12.277 29.3739 17.9751 29.9871 24.053M64.5723 1.49897C64.7386 5.02511 63.5144 14.6721 57.2871 25.0509C56.9358 25.6365 56.8247 26.0471 56.4888 26.6477M54.2932 30.3401L51.9979 34.1324L51.1996 35.4267M54.2932 30.3401C57.596 31.2383 62.716 32.8949 56.0896 34.7312C54.7994 35.0887 53.1 35.307 51.1996 35.4267M54.2932 30.3401C54.817 29.4734 55.741 27.9844 56.4888 26.6477M31.2403 34.7312C31.2403 34.7312 43.3387 35.922 51.1996 35.4267M31.2403 34.7312C31.2403 34.7312 14.7739 31.9369 27.8472 29.0428L30.5024 28.444M31.2403 34.7312L30.5024 28.444M29.9871 24.053L30.5024 28.444" stroke="#656565" stroke-width="2"/>
</symbol>

<symbol id='Drinks' viewBox='0 0 38 100'>
<path d="M5.45022 86.5296H29.0357M5.45022 80.7028H29.0357M5.45022 74.6679H29.0357M5.45022 68.841H29.0357M5.45022 63.0142H29.0357M17.7343 55.1063H27.5616M6.92431 52.1929H27.5616M5.45022 43.4527H29.0357M5.45022 37.6258H29.0357M5.45022 31.799H29.0357M22.1566 2.24861V5.57823M19.6998 2.24861V5.57823M17.2429 2.24861V5.57823M14.7861 2.24861V5.57823M12.3293 2.24861V5.57823M9.87275 6.61874V11.8213C6.59697 14.8734 0.536799 20.9777 1.02815 26.3884V30.9666C1.02815 30.9666 3.15743 31.0004 3.24475 31.799C3.32648 32.5464 1.51952 33.0476 1.51952 33.0476V36.7934C1.51952 36.7934 3.33146 36.9107 3.48497 37.6258C3.6566 38.4254 1.51952 38.8744 1.51952 38.8744V42.6203C1.51952 42.6203 3.31154 43.0288 3.24475 43.7473C3.18159 44.4267 1.51952 44.7013 1.51952 44.7013V49.2795L4.46767 52.1929V55.1063C3.48494 56.355 1.68333 57.881 1.51955 58.436L1.51952 62.1818C1.51952 62.1818 3.33131 62.2991 3.48482 63.0142C3.65645 63.8137 1.51952 64.2628 1.51952 64.2628V68.0086C1.51952 68.0086 3.33131 68.1259 3.48482 68.841C3.65644 69.6406 1.51955 70.0896 1.51955 70.0896L1.51952 73.8355C1.51952 73.8355 3.48482 74.1093 3.48482 74.876C3.48482 75.6426 1.51952 75.9165 1.51952 75.9165V79.6623C1.51952 79.6623 3.48482 79.9362 3.48482 80.7028C3.48482 81.4694 1.51952 81.7433 1.51952 81.7433V85.4891C1.51952 85.4891 3.48482 85.763 3.48482 86.5296C3.48481 87.2963 1.51955 87.5701 1.51955 87.5701L1.51952 93.397C1.12643 96.0607 5.12282 97.9752 6.92448 97.9752H26.579C31.6892 98.3082 32.9668 95.2005 32.9668 93.8132V87.5701C32.9668 87.5701 31.0011 87.2964 31.0011 86.5296C31.0011 85.7629 32.9668 85.4891 32.9668 85.4891V81.7433C32.9668 81.7433 31.0011 81.4696 31.0011 80.7028C31.0011 79.936 32.9668 79.6623 32.9668 79.6623V75.9165C32.9668 75.9165 31.0011 75.6427 31.0011 74.876C31.0011 74.1092 32.9668 73.8355 32.9668 73.8355V70.0896C32.9668 70.0896 30.8295 69.6407 31.0011 68.841C31.1546 68.1258 32.9668 68.0086 32.9668 68.0086V64.2628C32.9668 64.2628 30.8295 63.8138 31.0011 63.0142C31.1546 62.299 32.9668 62.1818 32.9668 62.1818V58.0198L30.0187 55.3665V52.1929L32.9668 49.2795V44.7013C32.9668 44.7013 31.3255 44.4209 31.2626 43.7473C31.1961 43.0343 32.9668 42.6203 32.9668 42.6203V38.8744C32.9668 38.8744 31.0964 38.3578 31.2626 37.6258C31.4077 36.9868 32.9668 36.7934 32.9668 36.7934V33.0476C32.9668 33.0476 31.2626 32.6314 31.2626 31.799C31.2626 30.9666 32.9668 30.9666 32.9668 30.9666V26.8046C33.4581 20.9777 28.3808 15.9833 25.105 12.6537L24.6137 11.8213C24.6137 11.8213 24.6137 9.18893 24.6137 6.61874M9.87275 6.61874V2.66481C9.87275 2.66481 9.87275 1.83241 10.3641 1.4162C10.8555 1 10.6589 1 15.7691 1H23.6309C23.6309 1 24.6137 1 24.6137 1.83241C24.6137 2.2185 24.6137 4.39536 24.6137 6.61874M9.87275 6.61874H24.6137M26.0875 9.32405H8.3984" stroke="#656565" stroke-width="1.5" stroke-linejoin="round"/>

</symbol>
<symbol id='Frozen' viewBox='0 0 82 100'>
<path d="M21.5664 13.0093C28.185 9.99809 40.6069 4.32995 45.1454 4.32995M45.1454 4.32995C52.1186 2.91291 68.4761 0.0434123 70.3199 1.31874C72.5655 0.728314 76.773 1.35417 75.6384 8.58106L77.7658 82.7983C77.7068 88.7026 76.2589 98.6514 67.4833 96.2602C59.4464 95.0793 43.6385 93.6032 40.536 93.6032C38.8114 93.6032 31.8596 93.7085 23.5166 94.666M45.1454 4.32995C43.0179 4.75085 11.993 2.73578 6.67445 1.31874C2.4196 0.185114 1.82865 3.56239 2.06503 5.39272L1.00131 47.0182L1.00131 90.4149C0.912667 94.2232 5.29161 100.405 23.5166 94.666M45.1454 86.3409L23.5166 94.666M38.5858 28.0653V36.3904M38.5858 70.5764V61.3656M19.7936 60.1257L27.5941 55.5017M56.8462 38.1617L49.0457 42.7857M56.8462 60.1257L49.0457 55.5017M19.7936 38.1617L27.5941 42.7857M50.8185 34.0877L49.0457 42.7857M49.0457 42.7857L56.8462 45.6011M49.0457 42.7857L27.5941 55.5017M56.8462 52.332L49.0457 55.5017M49.0457 55.5017L50.8185 64.0226M49.0457 55.5017L27.5941 42.7857M45.1454 66.8567L38.5858 61.3656M38.5858 61.3656L31.849 66.8567M38.5858 61.3656V36.3904M26.1759 64.0226L27.5941 55.5017M27.5941 55.5017L19.7936 52.332M20.5027 46.4868L27.5941 42.7857M27.5941 42.7857L26.1759 34.0877M31.849 31.785L38.5858 36.3904M38.5858 36.3904L45.1454 31.785" stroke="#656565" stroke-width="2"/>

</symbol>

<symbol id='Nuts' viewBox='0 0 72 100'>
<path d="M32.5288 96.9276C-15.814 99.8906 0.60643 11.0094 21.3938 2C22.3908 3.64811 23.3514 6.09625 24.2594 9.04431M32.5288 96.9276C93.0614 93.2174 55.8774 3.14912 45.1436 2C44.5051 3.57481 43.7383 5.72075 42.9121 8.28851M32.5288 96.9276L34.932 46.7429C36.046 33.0777 39.7996 17.962 42.9121 8.28851M32.5288 96.9276L30.9268 46.7429C29.8536 37.4 27.6416 20.026 24.2594 9.04431M24.2594 9.04431C26.8494 5.61805 34.206 0.670124 42.9121 8.28851" stroke="#656565" stroke-width="2"/>
</symbol>

<symbol id='Snacks' viewBox='-8 -10 88 100'>

<path d="M4.11949 74.4715C4.64035 75.6517 5.21286 76.7682 5.82634 77.8927L4.11949 83H69.1219L67.984 77.8927C76.8027 57.1799 68.4107 18.4498 67.984 5.39792L69.1219 1H4.11949L5.82634 5.39792C5.66504 6.55337 5.50824 7.68816 5.35587 8.80277M4.11949 74.4715H69.1219M4.11949 74.4715C0.268199 65.7449 -0.758886 53.534 5.35587 8.80277M5.35587 8.80277H67.984M52.9069 33.4879C55.8465 37.5075 59.5067 46.4547 50.6311 50.0865C45.5739 51.5461 38.116 52.8205 31.2868 52.2384M52.9069 33.4879C43.6899 39.0491 36.6444 37.1292 34.2738 35.474C17.0932 27.6429 14.0294 34.6701 14.6451 39.1626C15.7636 48.1499 23.07 51.538 31.2868 52.2384M52.9069 33.4879C48.6872 39.4623 38.4556 51.5765 31.2868 52.2384" stroke="#656565" stroke-width="2"/>

</symbol>

<symbol id='Supplies' viewBox='0 0 52 96'>

<path d="M13.4689 5.1243L20.2542 3.32693M13.4689 5.1243C13.4689 5.1243 15.9109 6.40246 18.8972 6.64514C22.7925 6.9617 24.1746 6.91634 26.738 6.64514C29.3013 6.37394 32.9201 5.39946 34.1264 4.29399M13.4689 5.1243L18.1432 8.71902C18.3392 11.0878 18.3972 14.3941 18.2422 17.8441M20.2542 3.32693C20.2542 1.52957 21.0383 0.672372 27.7935 1.1148C29.4288 1.22727 32.1972 2.16309 30.9506 3.32693M20.2542 3.32693C22.516 4.98604 27.1401 4.47909 29.1505 4.15649C29.8819 3.87277 30.6647 3.59385 30.9506 3.32693M20.2542 3.32693L20.5558 10.5164C20.606 11.2077 21.3097 12.7838 23.7223 13.5581H27.7935C28.5505 13.4659 30.1531 12.8944 30.5076 11.3459C30.862 9.79744 30.9506 5.35473 30.9506 3.32693M30.9506 3.32693C32.6052 3.48428 33.5917 3.84133 34.1264 4.29399M32.4678 12.452V8.16599C32.9272 8.16599 35.836 5.74128 34.1264 4.29399M32.4678 12.452C32.4678 14.1902 32.2212 15.7148 32.6272 16.5998M32.4678 12.452C36.4368 12.0426 41.2399 11.088 44.8325 13.8898C48.5191 16.7649 50.3352 25.859 47.6969 30.5639C46.8272 31.9776 44.7511 34.8966 42.2609 36.509M40.1578 37.4768C36.7802 38.3617 36.3882 36.9238 36.0866 35.8177C35.547 33.8386 35.1281 33.2624 37.7452 32.2049M40.1578 37.4768C40.4111 37.4104 40.6626 37.3252 40.9117 37.2237M40.1578 37.4768C38.4753 36.8132 38.1499 35.0803 38.1976 34.2969M7.88991 83.5169C5.31315 87.0857 5.8134 88.4667 6.81389 90.7685C7.28472 91.8517 14.8558 95.6218 24.8227 94.9116C37.7452 93.9909 43.3318 90.3081 43.6258 88.4667C43.6258 86.1163 44.2289 84.1529 41.2132 81.7196M7.88991 83.5169C24.054 90.2639 36.8405 85.1299 41.2132 81.7196M7.88991 83.5169C5.97675 80.1546 2.65123 71.1538 1.81139 66.7876C0.109477 57.9397 1.39839 52.6797 2.81187 47.4955C4.92286 39.753 10.4532 38.3064 14.826 33.329C16.972 30.8863 17.9601 24.1268 18.2422 17.8441M41.2132 81.7196C48.4508 73.9771 49.3556 59.7825 48.9032 53.6531C48.3001 50.2427 47.6969 45.1937 43.6258 41.2098C41.3132 38.9467 40.6604 37.815 40.9117 37.2237M40.9117 37.2237C41.3714 37.0362 41.8225 36.7928 42.2609 36.509M20.5558 22.9597C20.5558 25.7709 19.7416 32.2783 16.4846 35.8177M21.1589 33.329C21.1589 34.4812 20.6161 37.2279 18.4448 38.9977M40.1578 33.329C40.7054 34.4943 41.8928 36.7616 42.2609 36.509M18.2422 17.8441C22.8176 21.5771 32.0154 20.0562 33.3725 17.2911M18.2422 17.8441C19.0192 16.8302 22.9839 15.1619 32.6272 16.5998M33.3725 17.2911C33.9176 17.4892 35.966 16.1883 38.8007 16.5998C42.3313 17.1123 43.3318 22.1762 43.3318 23.5572C43.3318 24.9383 43.475 30.1491 38.8007 31.8082C38.4036 31.9492 38.0534 32.0803 37.7452 32.2049M33.3725 17.2911C32.7191 20.5894 32.6788 28.1898 37.7452 32.2049M33.3725 17.2911C33.0089 17.1589 32.7749 16.9216 32.6272 16.5998M39.4038 40.795C42.1179 45.1732 46.4907 56.5012 42.2687 66.7876M23.7223 11.3459C24.627 11.6685 26.7078 11.5948 27.7935 8.71902" stroke="#656565" stroke-width="1.5" stroke-linecap="round" stroke-linejoin="round"/>

</symbol>

<symbol id='Others' viewBox='0 0 60 90'>

<path d="M18.2269 68.0174C22.7645 68.1813 33.4464 68.0174 37.1863 68.0174C38.8464 68.0174 37.4483 68.4774 38.1479 68.0174M18.2269 68.0174C16.7882 67.4166 13.9107 65.5923 13.9107 63.1017C13.9107 61.6794 13.9107 58.9783 13.9107 56.3836M18.2269 68.0174C17.9735 69.5809 17.8325 71.616 17.9722 73.7524M28.6855 7.39042C24.8119 7.00808 16.1352 8.24247 12.4166 16.2387M10.2585 19.0243C9.48383 19.8435 8.03402 22.2358 8.43244 25.2508M46.5 32.5C46 35 42.1321 42.7835 38.1479 45.4052M41.7429 56.3836C42.11 53.2721 43.5 49.4197 43.5 49.4197C43.5 49.4197 47.8076 45.4461 51.5946 39.4654C54.4583 33 55.9957 29.5234 55 23.1207C55 23.1207 53 1 27.6894 1C2.37881 1 1.29408 23.1207 1.29408 23.1207C0.338767 29.5407 1.7693 33.6761 4.73876 39.4654C7.0474 43.9663 12.7116 47.3305 13.0807 49.4197C13.5573 52.1173 13.9107 54.4346 13.9107 56.3836M41.7429 56.3836C41.4348 58.9938 41.4826 61.507 41.6341 63.1017C41.7428 65.7234 39.852 66.897 38.1479 68.0174M41.7429 56.3836H13.9107M38.1479 68.0174C38.3866 69.7222 38.5109 71.7201 38.4066 73.7524M17.9722 73.7524H38.4066M17.9722 73.7524C18.1091 75.847 18.5158 78.0389 19.3508 79.9789M38.4066 73.7524C38.297 75.8901 37.9345 78.0659 37.1863 79.9789M19.3508 79.9789C20.6395 82.9728 22.9481 85.3668 26.8594 85.8778C32.5982 86.6275 35.677 83.8379 37.1863 79.9789M19.3508 79.9789C19.1407 79.4546 31.1536 79.7605 37.1863 79.9789" stroke="#656565" stroke-width="1.5" stroke-linecap="round" stroke-linejoin="round"/>

</symbol>

<symbol id="Fruits" viewBox='0 0 96 80'>

<path d="M16.7469 7.96754C16.468 7.63381 25.9945 3.11727 25.9945 3.11727C27.067 3.18478 29.3975 3.6745 30.1398 5.09324M16.7469 7.96754C17.0258 8.30127 22.6325 10.2575 22.6325 10.2575M16.7469 7.96754C15.7129 9.31378 14.602 11.9621 16.8058 13.4796M30.1398 5.09324C31.0677 6.86665 32.6703 7.79829 33.3798 8.41742C34.0621 9.01289 33.6662 9.72074 33.4217 10.1255M30.1398 5.09324C30.064 5.53302 25.0776 8.65167 22.6325 10.2575M33.4217 10.1255C32.9308 10.9382 31.3526 12.444 29.2934 13.2541M33.4217 10.1255C32.6239 11.934 34.2284 15.5393 38.3331 19.8319C40.7661 22.6326 41.6497 23.7878 46.6317 26.765C51.6137 29.7422 59.1275 30.9618 64.5282 31.4343C69.9289 31.9068 82.039 30.7431 92.5424 32.7891M29.2934 13.2541C29.6668 26.6987 36.1069 34.2279 44.008 38.4875C51.1808 42.3544 73.6144 47.2341 82.5968 46.8907M29.2934 13.2541C27.0202 14.1484 26.7436 14.455 25.3134 14.2219M23.0426 13.7324C23.0426 13.7324 23.2833 11.0362 22.6325 10.2575M23.0426 13.7324C22.0461 14.3084 19.7245 14.3305 18.6883 14.2695C17.89 14.0726 17.2733 13.8016 16.8058 13.4796M23.0426 13.7324C24.0745 13.9702 24.7755 14.1342 25.3134 14.2219M92.5424 32.7891C93.7125 33.1576 94.9808 33.6069 95.3472 36.0348C95.4018 36.3962 95.4007 37.7958 95.0532 37.7402M92.5424 32.7891L92.1316 35.1712C92.933 36.4944 94.2182 37.6064 95.0532 37.7402M95.0532 37.7402C94.1486 39.951 91.4461 45.0005 84.8868 46.618C84.2822 46.7671 83.5088 46.8558 82.5968 46.8907M16.8058 13.4796C16.5964 14.6941 16.1554 17.2514 16.067 17.7644C15.9564 18.4058 6.74888 25.6251 6.43536 37.8499C6.46049 43.7747 9.89359 57.8595 23.425 66.8003C36.9563 75.7411 49.3836 75.3882 53.9059 74.0941C59.958 72.3623 64.8026 68.7856 66.5502 66.4557M66.5502 66.4557L68.0747 66.0694C68.0747 66.0694 68.889 63.9489 68.5803 63.1375C68.2716 62.326 66.205 61.9532 66.205 61.9532M66.5502 66.4557C66.4075 66.6189 66.0281 66.5882 65.6521 65.16C65.2761 63.7317 65.864 62.427 66.205 61.9532M66.205 61.9532L64.4861 61.5153M82.5968 46.8907C84.9535 47.7485 89.6102 49.7941 89.3827 51.1135M89.3827 51.1135C88.9102 51.4691 87.9549 52.4997 87.9141 53.7772C87.8732 55.0546 88.691 55.7753 89.105 55.9759M89.3827 51.1135C89.8482 51.4494 90.6941 52.4837 90.3543 53.934C90.0146 55.3842 89.3799 55.8996 89.105 55.9759M89.105 55.9759C84.7941 58.188 75.525 61.3159 64.4861 61.5153M25.3134 14.2219C22.426 19.2602 21.6585 30.8656 21.8195 34.4846C21.9805 38.1036 25.7947 53.057 47.9145 59.4093C53.6098 61.0448 59.2473 61.6099 64.4861 61.5153" stroke="#656565" stroke-width="2"/>

<path d="M92.3789 35.4226C78.0029 41.4064 39.7869 42.7988 30.5255 12.9418M87.8612 53.1312C75.4103 48.4212 32.1508 62.2231 26.463 14.1381M22.4454 14.8211C14.7635 23.4596 8.0421 72.0107 65.0009 65.6143" stroke="#656565"/>

</symbol>


<symbol id='Diary' viewBox='0 0 90 100'>

<path d="M46.125 6.84416V1H11.6875V6.84416M46.125 6.84416H11.6875M46.125 6.84416L58 24.3766M11.6875 6.84416L1 24.3766M11.6875 6.84416L21.1875 24.3766M1 24.3766H21.1875M1 24.3766V91C8.88371 91 21.1875 91 21.1875 91M21.1875 24.3766H58M21.1875 24.3766V91M58 24.3766V91H21.1875" stroke="#656565" stroke-width="2" stroke-linejoin="round"/>

<path d="M73.0462 54L30 67.5603V79.5439C33.3112 80.3323 34.888 81.1207 34.888 83.6436C34.888 86.9073 31.8396 87.5855 30 88.3739V95.6271H85.8182V67.5603C83.7999 57.9735 76.4626 54.5256 73.0462 54Z" fill="white" stroke="#656565" stroke-width="3" stroke-linecap="round" stroke-linejoin="round"/>

<path d="M72.3346 87.9009C72.3346 89.7275 70.7924 91.2889 68.7889 91.2889C66.7854 91.2889 65.2432 89.7275 65.2432 87.9009C65.2432 86.0743 66.7854 84.5128 68.7889 84.5128C70.7924 84.5128 72.3346 86.0743 72.3346 87.9009Z" fill="white" stroke="#656565" stroke-width="3"/>

<path d="M79.3492 80.1746C79.3492 80.1338 79.3589 80.0912 79.3744 80.0564C79.3888 80.0241 79.4036 80.0083 79.4085 80.0037C79.4176 79.9951 79.4048 80.0129 79.3533 80.0129V86.0129C82.5099 86.0129 85.3492 83.5498 85.3492 80.1746H79.3492ZM79.3533 80.0129C79.3019 80.0129 79.2891 79.9951 79.2982 80.0037C79.3031 80.0083 79.3179 80.0241 79.3323 80.0564C79.3478 80.0912 79.3575 80.1338 79.3575 80.1746H73.3575C73.3575 83.5498 76.1968 86.0129 79.3533 86.0129V80.0129ZM79.3575 80.1746C79.3575 80.2155 79.3478 80.2581 79.3323 80.2929C79.3179 80.3252 79.3031 80.3409 79.2982 80.3456C79.2891 80.3542 79.3019 80.3364 79.3533 80.3364V74.3364C76.1968 74.3364 73.3575 76.7995 73.3575 80.1746H79.3575ZM79.3533 80.3364C79.4048 80.3364 79.4176 80.3542 79.4085 80.3456C79.4036 80.3409 79.3888 80.3252 79.3744 80.2929C79.3589 80.2581 79.3492 80.2155 79.3492 80.1746H85.3492C85.3492 76.7995 82.5099 74.3364 79.3533 74.3364V80.3364Z" fill="#656565" mask="url(#path-8-inside-1)"/>

<path d="M85.8182 68.3487L76.3575 68.191" stroke="#656565" stroke-width="2" stroke-linecap="round" stroke-linejoin="round"/>

<path d="M64.5316 68.3488H41.6682" stroke="#656565" stroke-width="2" stroke-linecap="round" stroke-linejoin="round"/>

<circle cx="70.5234" cy="67.718" r="4.64946" fill="white" stroke="#656565" stroke-width="3"/>

<circle cx="42.6143" cy="88.6893" r="2.59964" fill="white" stroke="#656565" stroke-width="3"/>

<circle cx="50.4982" cy="76.3904" r="5.1225" fill="white" stroke="#656565" stroke-width="3"/>

<ellipse cx="79.3533" cy="80.1746" rx="2.99589" ry="2.83821" fill="white"/>

</symbol>



<symbol id='Flavors' viewBox='0 0 98 100'>

<path d="M64.9602 33.9698C63.7988 35.7068 62.6791 37.7792 61.6503 40.2622C55.3044 55.5786 48.165 66.2224 45.3885 69.6298C42.3566 73.3836 33.2504 81.5114 21.0809 83.9926C14.5844 85.3172 6.65204 86.8764 7.96844 89.8331C9.73511 96.9451 24.6214 96.7847 31.8437 95.8154C52.6869 92.606 63.6153 85.7968 74.1983 74.6782C86.597 61.6522 94.6542 46.4671 91.6771 36.5582M64.9602 33.9698C70.9627 24.9919 78.0795 24.9689 79.5196 23.4776C82.6049 6.64926 85.3445 -2.32885 90.2544 2.41261L92.5866 4.66483C87.0619 10.7952 83.1284 25.2294 88.7871 32.4271C89.9074 33.852 91.1803 34.9047 91.6771 36.5582M64.9602 33.9698C66.9706 32.3925 71.8109 30.5512 75.0886 35.8039C76.4984 33.607 80.749 30.9986 86.4732 38.1394C87.1663 37.0533 89.1773 35.2164 91.6771 36.5582M18.3459 89.7726C26.6124 88.6227 45.7776 82.934 56.3056 69.3789C66.8336 55.8239 67.9439 43.6119 67.1831 39.2002C63.8453 47.3239 56.0177 64.6413 51.4101 68.9213C45.6505 74.2714 40.8983 82.0176 18.3459 89.7726Z" stroke="#656565" stroke-linejoin="round"/>

<path d="M41.6465 49.5959C44.5051 39.8614 44.6465 37.9479 40.3843 33.9104C39.8105 33.3668 43.4373 35.4749 39.1465 44.6432C34.8557 53.8115 35.6453 59.0961 39.1465 60.5924C37.5672 57.0984 40.8794 52.2081 41.6465 49.5959Z" stroke="#656565" stroke-linejoin="round"/>

<path d="M33.6843 36.6343C29.7786 30.7445 32.0434 24.5461 33.4809 22.3114C32.7908 23.5578 33.3532 26.2218 35.1991 30.3198C36.3048 32.7744 38.2357 36.3132 37.9475 37.9479C37.6773 44.5783 34.3041 48.596 32.5642 49.3594C35.6148 43.3477 34.524 38.0934 33.6843 36.6343Z" stroke="#656565" stroke-linejoin="round"/>

<path d="M18.5461 55.5313C19.2523 60.9931 24.1967 64.5144 26.5807 65.5923C26.1826 63.3349 25.5716 58.0488 26.312 54.9645C27.2375 51.1092 29.967 48.3805 30.1465 41.2053C30.2902 35.4652 27.8949 32.5325 26.329 31.8454C27.7682 34.5454 29.3292 36.5701 26.8771 41.7818C22.2647 51.5847 23.1661 56.2416 22.7312 55.5959C22.3833 55.0794 22.2385 53.4087 22.2096 52.6379C22.4967 51.3833 23.2268 48.0279 23.85 44.6432C24.4732 41.2586 22.5261 37.8937 21.4746 36.6343C22.3901 38.9129 21.7731 41.6651 21.3501 42.7564C20.1212 44.7389 17.8399 50.0694 18.5461 55.5313Z" stroke="#656565" stroke-linejoin="round"/>

<path d="M12 64.0037C9.14142 54.2692 10.9274 52.079 15.1895 48.0414C15.7634 47.4978 10.8987 51.4241 15.1895 60.5924C19.4804 69.7607 18.0012 73.5038 14.5 75.0001C16.0793 71.5062 12.7671 66.6159 12 64.0037Z" stroke="#656565" stroke-linejoin="round"/>

</symbol>

<symbol id='Meat' viewBox='0 -8 96 98'>

<path d="M98.1407 42.0897C99.8741 23.6307 78.4223 13.3164 62.5189 11.1923C37.2905 6.34356 25.4417 14.5768 19.9267 21.5763C18.5512 23.2596 17.6142 27.0055 17.3176 28.6681M98.1407 42.0897C98.2983 52.7034 92.8183 73.6732 69.6377 72.6425C65.502 72.5234 56.162 70.6544 51.8879 64.1313C47.6138 57.6082 35.9711 54.4396 30.684 53.6706C26.4553 52.825 17.6438 49.2827 16.2265 41.879C15.8191 40.8236 15.4669 36.7038 17.3176 28.6681M98.1407 42.0897C96.7824 56.5541 83.7712 67.4162 69.2396 65.0504C62.2114 63.9062 56.0839 60.3421 49.467 52.6116C45.4689 47.9407 39.0208 47.1287 29.5695 44.952C20.2813 42.8129 17.4455 33.7619 17.3176 28.6681M24.8566 29.8274C25.7114 24.7035 33.6089 15.3808 58.3603 19.0811M71.0274 43.7303C67.4389 42.6474 60.6995 39.4285 66.5181 33.6529C68.6594 31.5273 76.465 31.1358 78.0171 38.8013M64.1893 20.0389L64.5599 20.1243L64.4758 20.4896L64.1052 20.4042L64.1893 20.0389ZM75.1544 42.7576L75.525 42.843L75.4409 43.2082L75.0703 43.1229L75.1544 42.7576Z" stroke="#656565" stroke-width="2" stroke-linecap="round" stroke-linejoin="round"/>

<path d="M49.079 59.9609C40.8392 61.2459 38.0494 61.0986 29.6003 67.6942C27.4389 69.3815 22.4877 70.1139 20.7115 69.5433C17.171 69.1036 13.1827 67.2838 9.77376 62.6909C8.46233 60.6434 6.46909 55.2186 8.98758 49.8987C10.3047 46.6212 14.8598 40.2062 22.5434 40.7668C24.3147 40.8424 28.563 41.6029 31.3856 44.0397C34.2083 46.4766 40.3956 47.619 43.1365 47.8856C45.3821 47.7246 49.9895 47.7938 50.4542 49.3579L49.2227 50.2328L62.6239 49.5275C63.6215 48.9351 64.1198 48.1702 65.2064 46.9116C66.5645 45.3385 69.4731 45.9114 70.2418 46.898C71.0105 47.8847 71.6345 48.1004 71.6972 50.0927C71.6984 50.686 71.149 52.0422 69.7409 51.7955C72.2774 52.6199 72.4044 55.0295 72.0708 56.2297C70.7788 59.3781 68.3224 59.5078 67.2557 59.1792C65.9757 58.7847 65.4635 58.4395 63.7663 56.6512L46.0149 57.3156L49.079 59.9609Z" fill="white"/>

<path d="M49.2227 50.2328L50.4542 49.3579C49.9895 47.7938 45.3821 47.7246 43.1365 47.8856C40.3956 47.619 34.2083 46.4766 31.3856 44.0397C28.563 41.6029 24.3147 40.8424 22.5434 40.7668C14.8598 40.2062 10.3047 46.6212 8.98758 49.8987C6.46909 55.2186 8.46233 60.6434 9.77376 62.6909C13.1827 67.2838 17.171 69.1036 20.7115 69.5433C22.4877 70.1139 27.4389 69.3815 29.6003 67.6942C38.0494 61.0986 40.8392 61.2459 49.079 59.9609L46.0149 57.3156M49.2227 50.2328L45.4254 52.9304L48.1072 53.9536L45.5507 56.9148L46.0149 57.3156M49.2227 50.2328L62.6239 49.5275C63.6215 48.9351 64.1198 48.1702 65.2064 46.9116C66.5645 45.3385 69.4731 45.9114 70.2418 46.898C71.0105 47.8847 71.6345 48.1004 71.6972 50.0927C71.6984 50.686 71.149 52.0422 69.7409 51.7955M46.0149 57.3156L63.7663 56.6512C65.4635 58.4395 65.9757 58.7847 67.2557 59.1792C68.3224 59.5078 70.7788 59.3781 72.0708 56.2297C72.4044 55.0295 72.2774 52.6199 69.7409 51.7955M14.4097 63.14C16.1573 64.0565 20.6466 65.7141 24.6231 65.0124M30.913 62.0441C30.4646 62.626 29.1904 63.8517 27.6806 64.0988M67.8148 51.5863C69.024 51.4996 69.2347 51.631 69.7409 51.7955M25.5729 47.5816C25.2131 48.1861 24.372 48.9351 22.9278 48.2052C21.4837 47.4753 21.9093 45.8185 22.2692 45.2139C23.0681 44.2885 24.4583 44.0674 25.2857 44.9109C26.32 45.9654 26.1445 46.6214 25.5729 47.5816Z" stroke="#656565" stroke-width="2" stroke-linecap="round"/>

<path d="M58.1159 63.1312C59.1839 66.7588 61.1224 74.9708 53.8587 75.2608C46.7933 75.5428 44.9417 72.5433 45.5034 66.9346C46.8198 53.7885 54.7594 51.7302 58.1159 63.1312Z" fill="white" stroke="#656565" stroke-width="2"/>

</symbol>

<symbol id='Vegetables' viewBox='0 -10 82 90'>

<path d="M71.7333 9.46159C63.0287 5.29849 51.0755 8.35774 46.187 10.4078C45.9978 8.51544 48.789 5.83465 50.2082 4.7308L47.1332 2.3654C42.2131 4.25772 41.7716 8.83082 42.1658 10.8808C38.1447 9.69813 36.0158 8.98851 34.8331 8.75197C33.8869 8.56274 29.7081 2.83848 27.7369 0C27.7369 1.89232 29.3138 6.15003 30.1023 8.04235C21.1138 7.56927 15.9099 10.4078 11.4157 13.0097C6.92142 15.6116 0.771389 24.1271 0.0617701 33.5886C-0.505925 41.1579 2.97909 48.7272 4.79257 51.5657C7.5522 55.5868 16.4776 64.528 30.1023 68.1235C43.727 71.7189 54.2294 69.6215 57.7775 68.1235C61.5621 67.1773 71.1183 63.1561 77.1737 56.533C84.743 48.2541 86.3988 37.3733 85.9257 31.2232C85.4526 25.0732 82.6141 14.6655 71.7333 9.46159Z" fill="#656565"/>

<path d="M4.60286 27.7111C12.1096 6.78322 32.2593 9.85596 41.3959 14.0083C39.4204 13.2111 37.9388 13.3439 37.4449 13.51C29.3455 16.1011 28.1438 23.3926 28.5554 26.7145C28.9504 25.12 30.6954 22.8943 31.5186 21.9808C36.7041 15.7523 40.902 16.2506 43.8652 18.4928C46.2358 20.2867 49.9562 20.9012 51.5201 20.9843C56.8539 20.5856 58.8458 25.6349 59.175 28.2093C60.3603 26.0169 59.6689 23.1435 59.175 21.9808C58.5824 19.3898 52.1786 17.4132 49.0508 16.7489C56.7551 17.7454 61.4797 15.0049 62.879 13.51C61.8913 13.6761 59.7677 14.0083 59.175 14.0083C58.4342 14.0083 49.7916 14.0083 51.5201 13.0117C52.9029 12.2145 58.8458 11.3508 61.6444 11.0186C75.0775 11.4172 80.2466 19.9877 81.1521 24.2231C85.103 32.3949 81.8106 43.0747 79.6705 47.3932C64.4594 70.5135 39.585 68.4871 29.0492 64.5839C17.7726 61.0129 -2.9039 48.6389 4.60286 27.7111Z" fill="white"/>

<path d="M18.5805 29.3475C20.2097 27.1735 21.3712 25.1202 21.7483 24.3653C22.3504 23.2783 21.3958 22.5536 20.8433 22.3272C18.128 21.8743 16.7703 23.233 16.3178 23.233C15.8652 23.233 10.8872 27.3093 10.4347 34.3297C10.0726 39.9459 13.4516 44.2185 15.1864 45.6528C15.3372 45.1243 14.9601 42.0429 14.9601 40.8971C14.9601 39.5383 14.9601 39.9912 15.1864 36.1414C15.3389 33.5477 16.544 32.065 18.5805 29.3475Z" fill="#656565"/>

<path d="M71.7548 44.7469C73.746 40.9423 72.5845 35.009 71.7548 32.518C71.3927 39.7647 69.6429 43.992 68.8132 45.1998C66.46 50.2726 58.9326 54.7112 55.4631 56.2965C57.9974 56.2965 59.9886 55.9945 60.6674 55.8435C66.3242 53.126 69.2658 49.5026 71.7548 44.7469Z" fill="#656565"/>

<path d="M18.5805 29.3475C20.2097 27.1735 21.3712 25.1202 21.7483 24.3653C22.3504 23.2783 21.3958 22.5536 20.8433 22.3272C18.128 21.8743 16.7703 23.233 16.3178 23.233C15.8652 23.233 10.8872 27.3093 10.4347 34.3297C10.0726 39.9459 13.4516 44.2185 15.1864 45.6528C15.3372 45.1243 14.9601 42.0429 14.9601 40.8971C14.9601 39.5383 14.9601 39.9912 15.1864 36.1414C15.3389 33.5477 16.544 32.065 18.5805 29.3475Z" stroke="white"/>

<path d="M71.7548 44.7469C73.746 40.9423 72.5845 35.009 71.7548 32.518C71.3927 39.7647 69.6429 43.992 68.8132 45.1998C66.46 50.2726 58.9326 54.7112 55.4631 56.2965C57.9974 56.2965 59.9886 55.9945 60.6674 55.8435C66.3242 53.126 69.2658 49.5026 71.7548 44.7469Z" stroke="white"/>

</symbol>


<symbol id='Preserves' viewBox='0 0 64 100'>

<path d="M8.93397 14.6412V5.78403M8.93397 14.6412V16.2355M8.93397 14.6412C8.93397 14.6412 17.0835 18.535 33.9113 18.3612C52.5999 18.1682 57.1171 14.6412 57.1171 14.6412M8.93397 5.78403C7.95968 4.16021 11.5911 0.930289 33.9113 1.00115C56.2314 1.072 58.6819 4.21926 57.1171 5.78403M8.93397 5.78403C10.4397 7.31928 17.5432 10.2835 33.9113 9.85834C50.2793 9.43319 56.2018 6.96499 57.1171 5.78403M57.1171 5.78403V14.6412M57.1171 16.2355V14.6412M57.1171 16.2355C57.1171 16.2355 55.9044 17.3219 51.8866 18.3612M57.1171 16.2355C59.1011 17.0858 63.199 23.2032 65 26.1556C64.8975 28.4628 62.81 28.9614 60.9257 28.8594M8.93397 16.2355C4.62347 18.7746 -2.58039 24.9687 3.08822 29.4327C3.14819 29.5927 3.5432 29.8169 4.32824 30.0435M8.93397 16.2355C8.93397 16.2355 10.8301 17.5461 15.8426 18.6652M33.9113 20.2212C25.5919 20.299 19.7637 19.5407 15.8426 18.6652M33.9113 20.2212L35.928 33.3299M33.9113 20.2212C42.7423 20.1387 48.3818 19.2679 51.8866 18.3612M13.8054 30.9384C13.8054 28.0411 13.5043 21.4592 15.8426 18.6652M13.8054 30.9384C14.1892 31.8832 16.0906 33.5602 20.6255 32.7099C24.6998 31.946 31.9627 36.4299 36.2141 35.1899L35.928 33.3299M13.8054 30.9384C8.88431 30.9384 5.86194 30.4864 4.32824 30.0435M35.928 33.3299C41.5443 33.4185 52.8656 31.7356 58.9771 28.547M58.9771 28.547C56.2873 25.8264 51.1034 19.9805 51.8866 18.3612M58.9771 28.547C59.5157 28.6939 60.2059 28.8205 60.9257 28.8594M4.32824 30.0435V82.133C4.32824 90.5473 14.6026 96.6588 22.9283 96.6588C35.5481 96.6588 40.3475 96.4817 41.1742 96.6588C47.4332 96.1274 60.1463 92.4782 60.9257 82.133C61.7051 71.7878 61.2505 42.3068 60.9257 28.8594" stroke="#656565" stroke-width="1.5"/>

<path d="M34.3121 52.1376C24.2365 42.4298 19.6657 61.3263 23.2742 66.5169C27.9441 68.2705 32.095 67.0547 34.3121 66.5169C42.331 63.7537 40.7313 58.8033 37.5669 55.1423M34.3121 52.1376C32.2602 50.2671 28.9347 48.1394 33.3215 45.1233C33.2979 47.1802 33.463 51.4627 34.3121 52.1376ZM34.3121 52.1376C33.864 50.688 33.6328 47.5222 36.2933 46.456C37.1187 47.8589 37.8781 50.9592 34.3121 52.1376ZM34.3121 52.1376C36.7885 51.3192 40.0009 48.911 41.8122 49.4722M34.3121 52.1376C36.2955 53.6096 37.7084 50.1034 41.8122 52.1376M34.3121 52.1376C34.9541 52.6141 35.6336 53.1793 36.2933 53.8086M41.8122 52.1376C41.3877 53.0178 39.6895 54.5842 36.2933 53.8086M41.8122 52.1376C37.2272 51.352 36.2225 52.9243 36.2933 53.8086M36.2933 53.8086C36.7321 54.2272 37.1623 54.6742 37.5669 55.1423M37.5669 55.1423C38.5574 54.6551 40.9631 54.3541 42.6613 57.0476C42.1191 57.7414 40.3411 58.3316 37.5669 55.1423ZM60.9162 52.1376H46.4821C46.4821 52.1376 44 42.5 32 42.5C20 42.5 17.1185 52.1376 17.1185 52.1376H4.94849V64.2805H17.0794C17.0794 64.2805 20.4277 74.173 32 74C43.5723 73.8271 46.443 64.2805 46.443 64.2805H60.9162V52.1376Z" stroke="#656565" stroke-width="1.5" stroke-linecap="round" stroke-linejoin="round"/>

</symbol>


<symbol id='Babies' viewBox='0 0 48 80'>

<path d="M32.0647 54.4383C33.5433 56.895 36.685 61.0497 37.1499 62.2419C38.0515 64.5541 38.5997 69.9155 33.5794 72.8635C27.3041 76.5486 22.9763 75.1396 18.973 71.1294C15.7704 67.9212 12.0846 59.8936 10.642 56.2808C6.53053 48.6939 6.87523 45.1173 7.2879 43.2747C11.0747 26.3669 24.0041 27.5591 30.3876 31.2441C34.8236 33.195 34.7696 40.6735 32.0647 44.9005C29.9008 48.2821 31.163 52.668 32.0647 54.4383Z" stroke="#656565" stroke-width="2"/>

<path d="M35.5269 23.874C35.3105 28.2636 30.7122 28.2636 30.7122 28.2636C30.7122 28.2636 26.1139 28.2636 26.1139 23.874C26.1139 19.4845 29.8466 18.9968 30.7122 18.9426C31.5778 18.8884 35.7433 19.4845 35.5269 23.874Z" stroke="#656565" stroke-width="2"/>

<path d="M24.6533 23.874C24.491 27.3423 21.2451 27.3423 21.2451 27.3423C21.2451 27.3423 17.837 27.3423 17.7829 23.874C17.7288 20.4058 21.2451 20.1348 21.2451 20.1348C21.2451 20.1348 24.8156 20.4058 24.6533 23.874Z" stroke="#656565" stroke-width="2"/>

<path d="M12.319 23.2779C12.319 23.2779 15.5107 22.6276 16.3222 25.9333C17.1337 29.239 13.6714 30.2145 13.6714 30.2145C13.6714 30.2145 10.3691 30.2145 9.99278 27.6133C9.45181 23.874 12.319 23.2779 12.319 23.2779Z" stroke="#656565" stroke-width="2"/>

<path d="M9.99278 32.8157C10.5643 29.8893 5.257 27.1492 4.04203 30.5396C2.5273 34.7666 9.5059 35.3085 9.99278 32.8157Z" stroke="#656565" stroke-width="2"/>

<path d="M3.33876 36.2298C5.66496 36.284 6.26004 38.3433 6.20594 38.9394C6.15184 39.5355 5.98955 41.2696 3.33876 41.0529C0.687972 40.8361 1.01256 38.9394 1.01256 38.9394C1.01256 38.9394 1.01256 36.1756 3.33876 36.2298Z" stroke="#656565" stroke-width="2"/>

</symbol>
<symbol id='ITservices' viewBox="15 -6 80 115">
<path d="M75.8787 51.1209C78.2195 31.6296 63.8317 20.7664 56.3453 17.7713C52.0953 18.4201 54.3742 21.9335 56.9838 22.2486C68.7283 28.7495 72.4065 43.6874 71.6693 49.2041C71.7654 53.5842 74.8429 53.116 75.8787 51.1209Z" fill="#ADADAD"/>

<path d="M60.5796 4.73144C84.5555 15.2988 90.418 43.3214 88.6644 54.4163C85.3115 57.6937 84.5671 53.9466 84.9039 52.3682C86.5617 28.288 68.8911 13.552 59.9634 9.01338C56.7169 6.95348 58.4386 4.78007 60.5796 4.73144Z" fill="#C4C4C4"/>

<path d="M52.6893 30.0952C63.5018 34.3618 64.6883 45.3262 61.9617 49.2657C60.7931 50.954 58.3479 49.7193 58.7506 47.2871C60.0392 39.504 55.3772 37.4448 51.5077 34.2841C48.412 31.7555 51.0056 30.438 52.6893 30.0952Z" stroke="#656565" stroke-width="2"/>

<ellipse cx="46.4175" cy="45.5807" rx="6.82814" ry="7.24722" transform="rotate(-29.9325 46.4175 45.5807)" fill="#656565"/>

<path d="M10.1635 83.2985L33.0877 57.5826C33.9468 56.7997 34.2224 56.6633 36.8269 57.4378L97.8494 71.4804M10.1635 83.2985L69.2461 100.433L86.0918 95.444C89.4694 89.9914 96.4506 77.9082 98.0025 75.4344C99.5544 72.9607 98.5471 71.7677 97.8494 71.4804M10.1635 83.2985L10.3312 87.6291L69.4113 104.701L86.2594 99.7746L98.1192 78.447C98.9738 76.3422 100.941 72.7535 97.8494 71.4804M32.0908 64.4772C33.355 63.2759 38.0951 59.9658 42.0602 60.818C43.107 61.043 44.7066 61.413 46.5943 61.861M32.0908 64.4772L41.181 68.3366M32.0908 64.4772L28.0756 69.213M28.4578 84.2873L21.3678 81.3116C20.3152 80.7238 19.2587 79.791 19.8064 78.4623L22.3989 75.3003L24.5542 72.9357M28.4578 84.2873L37.4367 73.1846M28.4578 84.2873L41.4342 88.1713M46.5943 61.861C51.8567 63.1096 59.3586 64.963 63.3708 65.9641L66.31 66.9189C67.2946 67.3627 68.8512 68.9576 67.2007 71.7872C66.8036 72.4679 66.0968 73.4818 65.2064 74.6841M46.5943 61.861L41.181 68.3366M41.181 68.3366L37.4367 73.1846M37.4367 73.1846L28.0756 69.213M28.0756 69.213L24.5542 72.9357M33.8557 77.4155L24.5542 72.9357M41.4342 88.1713L46.1227 89.5746C51.0444 89.9874 54.2585 88.1282 55.2503 87.1469C55.9144 86.3528 56.7292 85.3698 57.6204 84.2833M41.4342 88.1713L46.8715 81.06M65.2064 74.6841L56.3843 71.7032C54.5275 70.8997 54.4438 71.1544 53.9538 71.7973L50.9241 75.7597M65.2064 74.6841C64.1935 76.0518 62.943 77.6632 61.6405 79.3052M61.6405 79.3052L50.9241 75.7597M61.6405 79.3052C60.2872 81.0113 58.8777 82.7504 57.6204 84.2833M50.9241 75.7597L46.8715 81.06M57.6204 84.2833L46.8715 81.06" stroke="#656565" stroke-width="2"/>


</symbol>



</defs>
</svg>

